<svg width="26" height="62" viewBox="0 0 26 62" fill="none" xmlns="http://www.w3.org/2000/svg">
<path id="f" d="M3.27639 57.3368V21.4603H0.901007C0.327639 21.4603 0 21.1327 0 20.5593C0 19.986 0.327639 19.6583 0.901007 19.6583H3.27639C3.68594 7.20806 8.27288 0 16.3 0C20.6413 0 25.8016 2.12965 25.8016 9.09198C25.8016 12.696 24.1701 14.7706 22.4433 14.0992C20.8131 12.7564 22.074 12.5617 22.1559 8.05669C22.1559 5.76322 19.6583 1.96583 15.2352 1.96583C10.0749 1.96583 8.43304 7.6176 8.43304 19.6583H15.0714C15.6448 19.6583 15.9724 19.986 15.9724 20.5593C15.9724 21.1327 15.6448 21.4603 15.0714 21.4603H8.43304V57.3368C8.43304 59.3026 7.79522 61.9562 5.74748 61.9562C3.78164 61.9562 3.27639 59.3026 3.27639 57.3368Z" fill="#014921"/>
</svg>
