<svg width="29" height="61" viewBox="0 0 29 61" fill="none" xmlns="http://www.w3.org/2000/svg">
<path d="M0 57.1142V5.7942C0 3.97316 0.43767 2.8971 1.50058 2.06935L3.50136 0.496643C3.8765 0.165545 4.18912 0 4.43922 0C4.81437 0 5.00194 0.496643 5.00194 1.65548V57.1142C9.12854 49.499 5.16867 26.1843 18.799 26.1843C23.1131 26.1843 28.1984 26.5907 28.1984 41.2417V57.1142C28.1984 59.1008 27.2606 60.4252 25.6975 60.4252C24.1969 60.4252 23.1965 59.1008 23.1965 57.1142L22.8273 44.9832C22.8273 34.9123 22.1559 30.2126 18.1276 29.5412C5.9162 27.506 11.692 59.9286 2.68854 60.4252C1.12544 60.4252 0 59.3491 0 57.1142Z" fill="#194C7C"/>
</svg>
