<svg width="54" height="77" viewBox="0 0 54 77" fill="none" xmlns="http://www.w3.org/2000/svg">
<g id="LOGO">
<g id="Group 1">
<path id="h" d="M0 57.1142V5.7942C0 3.97316 0.43767 2.8971 1.50058 2.06935L3.50136 0.496643C3.8765 0.165545 4.18912 0 4.43922 0C4.81437 0 5.00194 0.496643 5.00194 1.65548V57.1142C9.12854 49.499 5.16867 26.1843 18.799 26.1843C23.1131 26.1843 28.1984 26.5907 28.1984 41.2417V57.1142C28.1984 59.1008 27.2606 60.4252 25.6975 60.4252C24.1969 60.4252 23.1965 59.1008 23.1965 57.1142L22.8273 44.9832C22.8273 34.9123 22.1559 30.2126 18.1276 29.5412C5.9162 27.506 11.692 59.9286 2.68854 60.4252C1.12544 60.4252 0 59.3491 0 57.1142Z" fill="#194C7C"/>
<path id="f" d="M31.4746 72.1063V36.2299H29.0992C28.5259 36.2299 28.1982 35.9022 28.1982 35.3289C28.1982 34.7555 28.5259 34.4279 29.0992 34.4279H31.4746C31.8842 21.9776 36.4711 14.7695 44.4983 14.7695C48.8395 14.7695 53.9998 16.8992 53.9998 23.8615C53.9998 27.4655 52.3683 29.5401 50.6415 28.8687C49.0114 27.526 50.2722 27.3313 50.3542 22.8262C50.3542 20.5328 47.8566 16.7354 43.4335 16.7354C38.2731 16.7354 36.6313 22.3871 36.6313 34.4279H43.2696C43.843 34.4279 44.1706 34.7555 44.1706 35.3289C44.1706 35.9022 43.843 36.2299 43.2696 36.2299H36.6313V72.1063C36.6313 74.0722 35.9935 76.7257 33.9457 76.7257C31.9799 76.7257 31.4746 74.0722 31.4746 72.1063Z" fill="#014921"/>
</g>
</g>
</svg>
